<?xml version="1.0" standalone="no"?><!DOCTYPE svg PUBLIC "-//W3C//DTD SVG 1.1//EN" "http://www.w3.org/Graphics/SVG/1.1/DTD/svg11.dtd"><svg t="1556187175235" class="icon" style="" viewBox="0 0 1024 1024" version="1.1" xmlns="http://www.w3.org/2000/svg" p-id="1773" xmlns:xlink="http://www.w3.org/1999/xlink" width="200" height="200"><defs><style type="text/css"></style></defs><path d="M888.94763 572.734246c14.301727-6.567579 20.533662-23.483854 13.967106-37.784558-6.566556-14.301727-23.482831-20.646226-37.784558-13.96813-8.514931 3.894703-208.458729 98.441033-208.458729 331.828524l0 52.476165c-92.486414 37.116339-195.880249 37.116339-288.422945 0l0-52.476165c0-233.387491-199.942775-327.933821-208.457706-331.828524-14.329357-6.622838-31.134091-0.333598-37.7293 13.911848-6.593162 14.245446-0.38988 31.16172 13.856589 37.783535 7.179516 3.342118 175.34761 83.975577 175.34761 280.134165l0 71.229275c0 11.184737 6.53995 21.313422 16.694217 25.932626 58.709123 26.710338 120.81153 40.232306 184.501084 40.232306 63.744813 0 125.792984-13.522991 184.501084-40.232306 10.156314-4.619204 16.694217-14.747889 16.694217-25.932626l0-71.229275C713.656301 656.651494 881.825418 576.018036 888.94763 572.734246z" p-id="1774"></path><path d="M94.572424 493.212098c15.747659 0 28.491914-12.743232 28.491914-28.491914 0-214.68964 174.679391-389.369032 389.396661-389.369032 214.718293 0 389.396661 174.679391 389.396661 389.369032 0 15.748682 12.743232 28.491914 28.491914 28.491914 15.72003 0 28.491914-12.743232 28.491914-28.491914 0-246.130723-200.248743-446.352861-446.38049-446.352861S66.080509 218.58946 66.080509 464.720184C66.080509 480.468866 78.851371 493.212098 94.572424 493.212098z" p-id="1775"></path><path d="M923.783019 634.002658c-51.278897 12.130272-148.302651 74.679863-148.302651 224.762043l0 58.653865c0 15.747659 12.771885 28.490891 28.491914 28.490891 15.749706 0 28.492938-12.743232 28.492938-28.490891l0-58.653865c0-141.012617 99.971899-168.168094 104.618732-169.33671 15.192004-3.673669 24.595164-18.975167 20.9788-34.222429C954.446389 639.899972 939.198104 630.494765 923.783019 634.002658z" p-id="1776"></path><path d="M101.137956 634.002658c-15.358803-3.507894-30.661324 5.898337-34.279734 21.201881-3.616364 15.303544 5.871731 30.661324 21.174252 34.278711 1.058099 0.222057 104.424304 26.322505 104.424304 169.281451l0 58.653865c0 15.747659 12.743232 28.490891 28.491914 28.490891 15.72003 0 28.491914-12.743232 28.491914-28.490891l0-58.653865C249.440607 708.681498 152.417877 646.131907 101.137956 634.002658z" p-id="1777"></path><path d="M512.460999 829.269947c59.487859 0 107.706047-61.656245 107.706047-137.784086 0-76.126818-48.218188-137.783063-107.706047-137.783063-59.487859 0-107.706047 61.656245-107.706047 137.783063C404.754952 767.613702 452.97314 829.269947 512.460999 829.269947z" p-id="1778"></path><path d="M282.940582 424.152233c5.564739 5.564739 12.854772 8.348132 20.143783 8.348132 7.291057 0 14.58109-2.783393 20.145829-8.348132l37.617759-37.617759 37.618782 37.617759c5.563716 5.564739 12.853749 8.348132 20.144806 8.348132 7.290033 0 14.579043-2.783393 20.143783-8.348132 11.129478-11.129478 11.129478-29.160133 0-40.289612l-37.617759-37.617759 37.617759-37.562501c11.129478-11.129478 11.129478-29.160133 0-40.289612-11.129478-11.129478-29.160133-11.129478-40.288588 0l-37.618782 37.563524-37.59013-37.563524c-11.129478-11.129478-29.160133-11.129478-40.289612 0-11.129478 11.129478-11.129478 29.160133 0 40.289612l37.59013 37.562501-37.617759 37.617759C271.811104 394.993123 271.811104 413.022755 282.940582 424.152233z" p-id="1779"></path><path d="M677.346327 386.534474l37.618782 37.617759c5.564739 5.564739 12.854772 8.348132 20.143783 8.348132 7.290033 0 14.58109-2.783393 20.145829-8.348132 11.129478-11.129478 11.129478-29.160133 0-40.289612l-37.618782-37.617759 37.59013-37.562501c11.129478-11.129478 11.129478-29.160133 0-40.289612-11.129478-11.129478-29.15911-11.129478-40.288588 0l-37.59013 37.563524-37.59013-37.563524c-11.130502-11.129478-29.160133-11.129478-40.288588 0-11.129478 11.129478-11.129478 29.160133 0 40.289612l37.589107 37.562501-37.618782 37.617759c-11.129478 11.129478-11.129478 29.160133 0 40.289612 5.564739 5.564739 12.855796 8.348132 20.145829 8.348132s14.579043-2.783393 20.144806-8.348132L677.346327 386.534474z" p-id="1780"></path></svg>